{
  "accessors": [
    {
      "bufferView": 2,
      "componentType": 5126,
      "count": 86,
      "max": [
        233.18190002441406,
        -200.91650390625,
        498.4744873046875
      ],
      "min": [
        -210.15049743652344,
        -313.1116027832031,
        234.46200561523438
      ],
      "type": "VEC3"
    },
    {
      "bufferView": 2,
      "byteOffset": 1032,
      "componentType": 5126,
      "count": 86,
      "max": [
        0.7069966197013855,
        -0.7043096423149109,
        0.047367941588163376
      ],
      "min": [
        -0.6336542963981628,
        -0.9994357228279114,
        -0.08885826915502548
      ],
      "type": "VEC3"
    },
    {
      "bufferView": 1,
      "componentType": 5126,
      "count": 86,
      "max": [
        1.027500033378601,
        1.0410000085830688
      ],
      "min": [
        0.0851999968290329,
        0.06430000066757202
      ],
      "type": "VEC2"
    },
    {
      "bufferView": 0,
      "componentType": 5125,
      "count": 384,
      "type": "SCALAR"
    },
    {
      "bufferView": 2,
      "byteOffset": 2064,
      "componentType": 5126,
      "count": 7682,
      "max": [
        314.1885070800781,
        313.8550109863281,
        784.0391235351563
      ],
      "min": [
        -312.7781066894531,
        -310.5473937988281,
        15.975299835205078
      ],
      "type": "VEC3"
    },
    {
      "bufferView": 2,
      "byteOffset": 94248,
      "componentType": 5126,
      "count": 7682,
      "max": [
        0.9994509816169739,
        0.9994509816169739,
        0.9999997615814209
      ],
      "min": [
        -0.9992637038230896,
        -0.9994509816169739,
        -1.0
      ],
      "type": "VEC3"
    },
    {
      "bufferView": 1,
      "byteOffset": 688,
      "componentType": 5126,
      "count": 7682,
      "max": [
        1.5637999773025513,
        2.0969998836517334
      ],
      "min": [
        -0.5134999752044678,
        -0.7652000188827515
      ],
      "type": "VEC2"
    },
    {
      "bufferView": 0,
      "byteOffset": 1536,
      "componentType": 5125,
      "count": 40308,
      "type": "SCALAR"
    },
    {
      "bufferView": 2,
      "byteOffset": 186432,
      "componentType": 5126,
      "count": 3167,
      "max": [
        147.03680419921875,
        147.0366973876953,
        813.2548828125
      ],
      "min": [
        -147.03680419921875,
        -147.03680419921875,
        784.0084228515625
      ],
      "type": "VEC3"
    },
    {
      "bufferView": 2,
      "byteOffset": 224436,
      "componentType": 5126,
      "count": 3167,
      "max": [
        0.9996517896652222,
        0.9996517300605774,
        1.0
      ],
      "min": [
        -0.9996517896652222,
        -0.9996518492698669,
        -1.0
      ],
      "type": "VEC3"
    },
    {
      "bufferView": 1,
      "byteOffset": 62144,
      "componentType": 5126,
      "count": 3167,
      "max": [
        1.0069999694824219,
        1.010200023651123
      ],
      "min": [
        0.0,
        -0.00019999999494757503
      ],
      "type": "VEC2"
    },
    {
      "bufferView": 0,
      "byteOffset": 162768,
      "componentType": 5125,
      "count": 16914,
      "type": "SCALAR"
    },
    {
      "bufferView": 2,
      "byteOffset": 262440,
      "componentType": 5126,
      "count": 18092,
      "max": [
        196.5478973388672,
        139.9221954345703,
        768.643798828125
      ],
      "min": [
        -187.71710205078125,
        -192.1551971435547,
        643.7420043945313
      ],
      "type": "VEC3"
    },
    {
      "bufferView": 2,
      "byteOffset": 479544,
      "componentType": 5126,
      "count": 18092,
      "max": [
        0.9997620582580566,
        1.0,
        0.9999997019767761
      ],
      "min": [
        -0.9997619986534119,
        -1.0,
        -0.9999997019767761
      ],
      "type": "VEC3"
    },
    {
      "bufferView": 3,
      "componentType": 5126,
      "count": 18092,
      "max": [
        1.0,
        0.9999147653579712,
        1.0,
        1.0
      ],
      "min": [
        -1.0,
        -1.0,
        -1.0,
        -1.0
      ],
      "type": "VEC4"
    },
    {
      "bufferView": 1,
      "byteOffset": 87480,
      "componentType": 5126,
      "count": 18092,
      "max": [
        27.29319953918457,
        4.1016998291015625
      ],
      "min": [
        -11.133299827575684,
        -4.700900077819824
      ],
      "type": "VEC2"
    },
    {
      "bufferView": 0,
      "byteOffset": 230424,
      "componentType": 5125,
      "count": 107316,
      "type": "SCALAR"
    },
    {
      "bufferView": 2,
      "byteOffset": 696648,
      "componentType": 5126,
      "count": 9696,
      "max": [
        136.16900634765625,
        147.28990173339844,
        1129.1865234375
      ],
      "min": [
        -155.73660278320313,
        -160.8437957763672,
        932.365478515625
      ],
      "type": "VEC3"
    },
    {
      "bufferView": 2,
      "byteOffset": 813000,
      "componentType": 5126,
      "count": 9696,
      "max": [
        0.9999148845672607,
        0.9995580911636353,
        1.0
      ],
      "min": [
        -0.999977171421051,
        -0.9996333718299866,
        -1.0
      ],
      "type": "VEC3"
    },
    {
      "bufferView": 1,
      "byteOffset": 232216,
      "componentType": 5126,
      "count": 9696,
      "max": [
        1.0116000175476074,
        1.026900053024292
      ],
      "min": [
        0.005200000014156103,
        -0.0024999999441206455
      ],
      "type": "VEC2"
    },
    {
      "bufferView": 0,
      "byteOffset": 659688,
      "componentType": 5125,
      "count": 55632,
      "type": "SCALAR"
    },
    {
      "bufferView": 2,
      "byteOffset": 929352,
      "componentType": 5126,
      "count": 12561,
      "max": [
        283.6835021972656,
        274.7164001464844,
        1031.8345947265625
      ],
      "min": [
        -241.9586944580078,
        -276.1523132324219,
        144.20790100097656
      ],
      "type": "VEC3"
    },
    {
      "bufferView": 2,
      "byteOffset": 1080084,
      "componentType": 5126,
      "count": 12561,
      "max": [
        0.9992260932922363,
        0.9992479085922241,
        0.9999998807907104
      ],
      "min": [
        -0.9992259740829468,
        -0.9999946355819702,
        -1.0
      ],
      "type": "VEC3"
    },
    {
      "bufferView": 1,
      "byteOffset": 309784,
      "componentType": 5126,
      "count": 12561,
      "max": [
        4.587500095367432,
        39.83829879760742
      ],
      "min": [
        -5.618100166320801,
        -34.79909896850586
      ],
      "type": "VEC2"
    },
    {
      "bufferView": 0,
      "byteOffset": 882216,
      "componentType": 5125,
      "count": 71214,
      "type": "SCALAR"
    },
    {
      "bufferView": 2,
      "byteOffset": 1230816,
      "componentType": 5126,
      "count": 4932,
      "max": [
        231.94720458984375,
        238.6304931640625,
        1074.255126953125
      ],
      "min": [
        -235.94459533691406,
        -226.07310485839844,
        1001.6575927734375
      ],
      "type": "VEC3"
    },
    {
      "bufferView": 2,
      "byteOffset": 1290000,
      "componentType": 5126,
      "count": 4932,
      "max": [
        0.9999826550483704,
        0.9989532232284546,
        0.9999270439147949
      ],
      "min": [
        -0.9995326995849609,
        -0.9999591112136841,
        -0.9997822642326355
      ],
      "type": "VEC3"
    },
    {
      "bufferView": 1,
      "byteOffset": 410272,
      "componentType": 5126,
      "count": 4932,
      "max": [
        0.9244999885559082,
        1.0020999908447266
      ],
      "min": [
        0.6499999761581421,
        0.9995999932289124
      ],
      "type": "VEC2"
    },
    {
      "bufferView": 0,
      "byteOffset": 1167072,
      "componentType": 5125,
      "count": 28032,
      "type": "SCALAR"
    }
  ],
  "asset": {
    "extras": {
      "author": "VERST (https://sketchfab.com/VERST)",
      "license": "CC-BY-4.0 (http://creativecommons.org/licenses/by/4.0/)",
      "source": "https://sketchfab.com/3d-models/perfume-f8d05ab94b2c449fa7622b6d365644d1",
      "title": "Perfume"
    },
    "generator": "Sketchfab-12.66.0",
    "version": "2.0"
  },
  "bufferViews": [
    {
      "buffer": 0,
      "byteLength": 1279200,
      "name": "floatBufferViews",
      "target": 34963
    },
    {
      "buffer": 0,
      "byteLength": 449728,
      "byteOffset": 1279200,
      "byteStride": 8,
      "name": "floatBufferViews",
      "target": 34962
    },
    {
      "buffer": 0,
      "byteLength": 1349184,
      "byteOffset": 1728928,
      "byteStride": 12,
      "name": "floatBufferViews",
      "target": 34962
    },
    {
      "buffer": 0,
      "byteLength": 289472,
      "byteOffset": 3078112,
      "byteStride": 16,
      "name": "floatBufferViews",
      "target": 34962
    }
  ],
  "buffers": [
    {
      "byteLength": 3367584,
      "uri": "scene.bin"
    }
  ],
  "images": [
    {
      "uri": "textures/material_baseColor.png"
    },
    {
      "uri": "textures/material_emissive.jpeg"
    },
    {
      "uri": "textures/mat_steklo_baseColor.jpeg"
    },
    {
      "uri": "textures/st_gold_baseColor.jpeg"
    },
    {
      "uri": "textures/st_leather_baseColor.jpeg"
    },
    {
      "uri": "textures/st_leather_normal.png"
    },
    {
      "uri": "textures/st_metal_2_baseColor.jpeg"
    },
    {
      "uri": "textures/st_tile_emissive.jpeg"
    },
    {
      "uri": "textures/standart_metal_baseColor.jpeg"
    }
  ],
  "materials": [
    {
      "alphaMode": "BLEND",
      "doubleSided": true,
      "emissiveTexture": {
        "index": 1
      },
      "name": "material",
      "pbrMetallicRoughness": {
        "baseColorFactor": [
          1.0,
          1.0,
          1.0,
          0.8
        ],
        "baseColorTexture": {
          "index": 0
        },
        "metallicFactor": 0.0,
        "roughnessFactor": 0.7764480144290307
      }
    },
    {
      "alphaMode": "BLEND",
      "doubleSided": true,
      "name": "mat_steklo",
      "pbrMetallicRoughness": {
        "baseColorFactor": [
          1.0,
          1.0,
          1.0,
          0.8
        ],
        "baseColorTexture": {
          "index": 2
        },
        "metallicFactor": 0.0,
        "roughnessFactor": 0.5278504029567261
      }
    },
    {
      "doubleSided": true,
      "emissiveTexture": {
        "index": 3
      },
      "name": "st_gold",
      "pbrMetallicRoughness": {
        "baseColorTexture": {
          "index": 3
        },
        "metallicFactor": 0.0
      }
    },
    {
      "doubleSided": true,
      "emissiveTexture": {
        "index": 4
      },
      "name": "st_leather",
      "normalTexture": {
        "index": 5
      },
      "pbrMetallicRoughness": {
        "baseColorTexture": {
          "index": 4
        },
        "metallicFactor": 0.0,
        "roughnessFactor": 0.45060732949393556
      }
    },
    {
      "doubleSided": true,
      "emissiveTexture": {
        "index": 6
      },
      "name": "st_metal_2",
      "pbrMetallicRoughness": {
        "baseColorTexture": {
          "index": 6
        },
        "metallicFactor": 0.5659447974390482,
        "roughnessFactor": 0.720592516946988
      }
    },
    {
      "doubleSided": true,
      "emissiveTexture": {
        "index": 7
      },
      "name": "st_tile",
      "pbrMetallicRoughness": {
        "baseColorTexture": {
          "index": 6
        },
        "roughnessFactor": 0.8177720206632981
      }
    },
    {
      "doubleSided": true,
      "emissiveTexture": {
        "index": 8
      },
      "name": "standart_metal",
      "pbrMetallicRoughness": {
        "baseColorTexture": {
          "index": 8
        },
        "metallicFactor": 0.6211183683245269,
        "roughnessFactor": 0.8294540765047345
      }
    }
  ],
  "meshes": [
    {
      "name": "Object_0",
      "primitives": [
        {
          "attributes": {
            "NORMAL": 1,
            "POSITION": 0,
            "TEXCOORD_0": 2
          },
          "indices": 3,
          "material": 0,
          "mode": 4
        }
      ]
    },
    {
      "name": "Object_1",
      "primitives": [
        {
          "attributes": {
            "NORMAL": 5,
            "POSITION": 4,
            "TEXCOORD_0": 6
          },
          "indices": 7,
          "material": 1,
          "mode": 4
        }
      ]
    },
    {
      "name": "Object_2",
      "primitives": [
        {
          "attributes": {
            "NORMAL": 9,
            "POSITION": 8,
            "TEXCOORD_0": 10
          },
          "indices": 11,
          "material": 2,
          "mode": 4
        }
      ]
    },
    {
      "name": "Object_3",
      "primitives": [
        {
          "attributes": {
            "NORMAL": 13,
            "POSITION": 12,
            "TANGENT": 14,
            "TEXCOORD_0": 15
          },
          "indices": 16,
          "material": 3,
          "mode": 4
        }
      ]
    },
    {
      "name": "Object_4",
      "primitives": [
        {
          "attributes": {
            "NORMAL": 18,
            "POSITION": 17,
            "TEXCOORD_0": 19
          },
          "indices": 20,
          "material": 4,
          "mode": 4
        }
      ]
    },
    {
      "name": "Object_5",
      "primitives": [
        {
          "attributes": {
            "NORMAL": 22,
            "POSITION": 21,
            "TEXCOORD_0": 23
          },
          "indices": 24,
          "material": 5,
          "mode": 4
        }
      ]
    },
    {
      "name": "Object_6",
      "primitives": [
        {
          "attributes": {
            "NORMAL": 26,
            "POSITION": 25,
            "TEXCOORD_0": 27
          },
          "indices": 28,
          "material": 6,
          "mode": 4
        }
      ]
    }
  ],
  "nodes": [
    {
      "children": [
        1
      ],
      "matrix": [
        1.0,
        0.0,
        0.0,
        0.0,
        0.0,
        2.220446049250313e-16,
        -1.0,
        0.0,
        0.0,
        1.0,
        2.220446049250313e-16,
        0.0,
        0.0,
        0.0,
        0.0,
        1.0
      ],
      "name": "Sketchfab_model"
    },
    {
      "children": [
        2,
        3,
        4,
        5,
        6,
        7,
        8
      ],
      "name": "Perfume N060119.obj.cleaner.materialmerger.gles"
    },
    {
      "mesh": 0,
      "name": "Object_2"
    },
    {
      "mesh": 1,
      "name": "Object_3"
    },
    {
      "mesh": 2,
      "name": "Object_4"
    },
    {
      "mesh": 3,
      "name": "Object_5"
    },
    {
      "mesh": 4,
      "name": "Object_6"
    },
    {
      "mesh": 5,
      "name": "Object_7"
    },
    {
      "mesh": 6,
      "name": "Object_8"
    }
  ],
  "samplers": [
    {
      "magFilter": 9729,
      "minFilter": 9987,
      "wrapS": 10497,
      "wrapT": 10497
    }
  ],
  "scene": 0,
  "scenes": [
    {
      "name": "Sketchfab_Scene",
      "nodes": [
        0
      ]
    }
  ],
  "textures": [
    {
      "sampler": 0,
      "source": 0
    },
    {
      "sampler": 0,
      "source": 1
    },
    {
      "sampler": 0,
      "source": 2
    },
    {
      "sampler": 0,
      "source": 3
    },
    {
      "sampler": 0,
      "source": 4
    },
    {
      "sampler": 0,
      "source": 5
    },
    {
      "sampler": 0,
      "source": 6
    },
    {
      "sampler": 0,
      "source": 7
    },
    {
      "sampler": 0,
      "source": 8
    }
  ]
}
