{
  "accessors": [
    {
      "bufferView": 2,
      "componentType": 5126,
      "count": 146,
      "max": [
        6.410208225250244,
        6.1496171951293945,
        6.367531776428223
      ],
      "min": [
        -6.386593818664551,
        -0.07428599894046783,
        -6.429271221160889
      ],
      "type": "VEC3"
    },
    {
      "bufferView": 2,
      "byteOffset": 1752,
      "componentType": 5126,
      "count": 146,
      "max": [
        1.0,
        1.0,
        1.0
      ],
      "min": [
        -1.0,
        -1.0,
        -1.0
      ],
      "type": "VEC3"
    },
    {
      "bufferView": 3,
      "componentType": 5126,
      "count": 146,
      "max": [
        1.0,
        0.7608602046966553,
        1.0,
        1.0
      ],
      "min": [
        -1.0,
        -0.7686993479728699,
        -1.0,
        -1.0
      ],
      "type": "VEC4"
    },
    {
      "bufferView": 1,
      "componentType": 5126,
      "count": 146,
      "max": [
        1.065222978591919,
        0.9682909846305847
      ],
      "min": [
        0.0867919996380806,
        0.06482099741697311
      ],
      "type": "VEC2"
    },
    {
      "bufferView": 0,
      "componentType": 5125,
      "count": 408,
      "type": "SCALAR"
    },
    {
      "bufferView": 2,
      "byteOffset": 3504,
      "componentType": 5126,
      "count": 4,
      "max": [
        -0.04617200046777725,
        0.2061150074005127,
        5.518528938293457
      ],
      "min": [
        -13.943293571472168,
        0.2061150074005127,
        -5.889105796813965
      ],
      "type": "VEC3"
    },
    {
      "bufferView": 2,
      "byteOffset": 3552,
      "componentType": 5126,
      "count": 4,
      "max": [
        0.0,
        1.0,
        0.0
      ],
      "min": [
        0.0,
        1.0,
        0.0
      ],
      "type": "VEC3"
    },
    {
      "bufferView": 3,
      "byteOffset": 2336,
      "componentType": 5126,
      "count": 4,
      "max": [
        -0.0017853506142273545,
        0.0,
        -0.9999983906745911,
        1.0
      ],
      "min": [
        -0.0017892263131216168,
        0.0,
        -0.9999985098838806,
        1.0
      ],
      "type": "VEC4"
    },
    {
      "bufferView": 1,
      "byteOffset": 1168,
      "componentType": 5126,
      "count": 4,
      "max": [
        0.5540570020675659,
        0.9671729803085327
      ],
      "min": [
        0.021278999745845795,
        0.32894501090049744
      ],
      "type": "VEC2"
    },
    {
      "bufferView": 0,
      "byteOffset": 1632,
      "componentType": 5125,
      "count": 6,
      "type": "SCALAR"
    },
    {
      "bufferView": 2,
      "byteOffset": 3600,
      "componentType": 5126,
      "count": 4,
      "max": [
        -0.04617200046777725,
        0.2061150074005127,
        5.518528938293457
      ],
      "min": [
        -13.943293571472168,
        0.2061150074005127,
        -5.889105796813965
      ],
      "type": "VEC3"
    },
    {
      "bufferView": 2,
      "byteOffset": 3648,
      "componentType": 5126,
      "count": 4,
      "max": [
        0.0,
        1.0,
        0.0
      ],
      "min": [
        0.0,
        1.0,
        0.0
      ],
      "type": "VEC3"
    },
    {
      "bufferView": 3,
      "byteOffset": 2400,
      "componentType": 5126,
      "count": 4,
      "max": [
        -0.0017853506142273545,
        0.0,
        -0.9999983906745911,
        1.0
      ],
      "min": [
        -0.0017892263131216168,
        0.0,
        -0.9999985098838806,
        1.0
      ],
      "type": "VEC4"
    },
    {
      "bufferView": 1,
      "byteOffset": 1200,
      "componentType": 5126,
      "count": 4,
      "max": [
        0.5540570020675659,
        0.9671729803085327
      ],
      "min": [
        0.021278999745845795,
        0.32894501090049744
      ],
      "type": "VEC2"
    },
    {
      "bufferView": 0,
      "byteOffset": 1656,
      "componentType": 5125,
      "count": 6,
      "type": "SCALAR"
    },
    {
      "bufferView": 2,
      "byteOffset": 3696,
      "componentType": 5126,
      "count": 4,
      "max": [
        -0.04617200046777725,
        0.2061150074005127,
        5.518528938293457
      ],
      "min": [
        -13.943293571472168,
        0.2061150074005127,
        -5.889105796813965
      ],
      "type": "VEC3"
    },
    {
      "bufferView": 2,
      "byteOffset": 3744,
      "componentType": 5126,
      "count": 4,
      "max": [
        0.0,
        1.0,
        0.0
      ],
      "min": [
        0.0,
        1.0,
        0.0
      ],
      "type": "VEC3"
    },
    {
      "bufferView": 3,
      "byteOffset": 2464,
      "componentType": 5126,
      "count": 4,
      "max": [
        -0.0017853506142273545,
        0.0,
        -0.9999983906745911,
        1.0
      ],
      "min": [
        -0.0017892263131216168,
        0.0,
        -0.9999985098838806,
        1.0
      ],
      "type": "VEC4"
    },
    {
      "bufferView": 1,
      "byteOffset": 1232,
      "componentType": 5126,
      "count": 4,
      "max": [
        0.5540570020675659,
        0.9671729803085327
      ],
      "min": [
        0.021278999745845795,
        0.32894501090049744
      ],
      "type": "VEC2"
    },
    {
      "bufferView": 0,
      "byteOffset": 1680,
      "componentType": 5125,
      "count": 6,
      "type": "SCALAR"
    }
  ],
  "asset": {
    "extras": {
      "author": "Thunder (https://sketchfab.com/thunderpwn)",
      "license": "CC-BY-SA-4.0 (http://creativecommons.org/licenses/by-sa/4.0/)",
      "source": "https://sketchfab.com/3d-models/waterlilly-a47d0d224a3340428bfa18324bb1d6f0",
      "title": "Waterlilly"
    },
    "generator": "Sketchfab-12.66.0",
    "version": "2.0"
  },
  "bufferViews": [
    {
      "buffer": 0,
      "byteLength": 1704,
      "name": "floatBufferViews",
      "target": 34963
    },
    {
      "buffer": 0,
      "byteLength": 1264,
      "byteOffset": 1704,
      "byteStride": 8,
      "name": "floatBufferViews",
      "target": 34962
    },
    {
      "buffer": 0,
      "byteLength": 3792,
      "byteOffset": 2968,
      "byteStride": 12,
      "name": "floatBufferViews",
      "target": 34962
    },
    {
      "buffer": 0,
      "byteLength": 2528,
      "byteOffset": 6760,
      "byteStride": 16,
      "name": "floatBufferViews",
      "target": 34962
    }
  ],
  "buffers": [
    {
      "byteLength": 9288,
      "uri": "scene.bin"
    }
  ],
  "images": [
    {
      "uri": "textures/Material01_baseColor.png"
    },
    {
      "uri": "textures/Material01_metallicRoughness.png"
    },
    {
      "uri": "textures/Material01_normal.png"
    },
    {
      "uri": "textures/Material01.001_normal.png"
    }
  ],
  "materials": [
    {
      "alphaMode": "BLEND",
      "doubleSided": true,
      "name": "Material01",
      "normalTexture": {
        "index": 2
      },
      "occlusionTexture": {
        "index": 1
      },
      "pbrMetallicRoughness": {
        "baseColorTexture": {
          "index": 0
        },
        "metallicRoughnessTexture": {
          "index": 1
        }
      }
    },
    {
      "alphaMode": "BLEND",
      "doubleSided": true,
      "name": "Material01.001",
      "normalTexture": {
        "index": 3
      },
      "occlusionTexture": {
        "index": 1
      },
      "pbrMetallicRoughness": {
        "baseColorTexture": {
          "index": 0
        },
        "metallicRoughnessTexture": {
          "index": 1
        }
      }
    }
  ],
  "meshes": [
    {
      "name": "water_lily_Material01_0",
      "primitives": [
        {
          "attributes": {
            "NORMAL": 1,
            "POSITION": 0,
            "TANGENT": 2,
            "TEXCOORD_0": 3
          },
          "indices": 4,
          "material": 0,
          "mode": 4
        }
      ]
    },
    {
      "name": "green_leaf_Material01.001_0",
      "primitives": [
        {
          "attributes": {
            "NORMAL": 6,
            "POSITION": 5,
            "TANGENT": 7,
            "TEXCOORD_0": 8
          },
          "indices": 9,
          "material": 1,
          "mode": 4
        }
      ]
    },
    {
      "name": "green_leaf.001_Material01.001_0",
      "primitives": [
        {
          "attributes": {
            "NORMAL": 11,
            "POSITION": 10,
            "TANGENT": 12,
            "TEXCOORD_0": 13
          },
          "indices": 14,
          "material": 1,
          "mode": 4
        }
      ]
    },
    {
      "name": "green_leaf.002_Material01.001_0",
      "primitives": [
        {
          "attributes": {
            "NORMAL": 16,
            "POSITION": 15,
            "TANGENT": 17,
            "TEXCOORD_0": 18
          },
          "indices": 19,
          "material": 1,
          "mode": 4
        }
      ]
    }
  ],
  "nodes": [
    {
      "children": [
        1
      ],
      "matrix": [
        1.0,
        0.0,
        0.0,
        0.0,
        0.0,
        2.220446049250313e-16,
        -1.0,
        0.0,
        0.0,
        1.0,
        2.220446049250313e-16,
        0.0,
        0.0,
        0.0,
        0.0,
        1.0
      ],
      "name": "Sketchfab_model"
    },
    {
      "children": [
        2
      ],
      "matrix": [
        1.0,
        0.0,
        0.0,
        0.0,
        0.0,
        0.0,
        1.0,
        0.0,
        0.0,
        -1.0,
        0.0,
        0.0,
        0.0,
        0.0,
        0.0,
        1.0
      ],
      "name": "waterlilly.fbx"
    },
    {
      "children": [
        3,
        5,
        7,
        9
      ],
      "name": "RootNode"
    },
    {
      "children": [
        4
      ],
      "matrix": [
        2.101912498474121,
        0.0,
        0.0,
        0.0,
        0.0,
        2.101912498474093,
        3.4244502394154245e-07,
        0.0,
        0.0,
        -3.4244502394154245e-07,
        2.101912498474093,
        0.0,
        0.0,
        0.0,
        0.0,
        1.0
      ],
      "name": "water_lily"
    },
    {
      "mesh": 0,
      "name": "water_lily_Material01_0"
    },
    {
      "children": [
        6
      ],
      "matrix": [
        2.0028761065633205,
        2.686793680355608e-16,
        -0.6375903453313405,
        0.0,
        1.0387668811846188e-07,
        2.101912498474093,
        3.263100496260151e-07,
        0.0,
        0.6375903453313321,
        -3.4244497603934165e-07,
        2.002876106563294,
        0.0,
        0.0,
        0.0,
        0.0,
        1.0
      ],
      "name": "green_leaf"
    },
    {
      "mesh": 1,
      "name": "green_leaf_Material01.001_0"
    },
    {
      "children": [
        8
      ],
      "matrix": [
        -1.4862767757621165,
        5.1665095768733954e-14,
        -1.486276049326627,
        0.0,
        2.4214519156318713e-07,
        2.101912498474093,
        -2.421452368490882e-07,
        0.0,
        1.4862760493266074,
        -3.42445007150735e-07,
        -1.486276775762097,
        0.0,
        0.0,
        0.0,
        0.0,
        1.0
      ],
      "name": "green_leaf.001"
    },
    {
      "mesh": 2,
      "name": "green_leaf.001_Material01.001_0"
    },
    {
      "children": [
        10
      ],
      "matrix": [
        -0.3319650708651926,
        1.4782864613873157e-14,
        2.07553254442497,
        0.0,
        -3.3814723788765175e-07,
        2.101912498474093,
        -5.408400035068171e-08,
        0.0,
        -2.0755325444249424,
        -3.424450811224779e-07,
        -0.33196507086518795,
        0.0,
        0.0,
        0.0,
        0.0,
        1.0
      ],
      "name": "green_leaf.002"
    },
    {
      "mesh": 3,
      "name": "green_leaf.002_Material01.001_0"
    }
  ],
  "samplers": [
    {
      "magFilter": 9729,
      "minFilter": 9987,
      "wrapS": 10497,
      "wrapT": 10497
    }
  ],
  "scene": 0,
  "scenes": [
    {
      "name": "Sketchfab_Scene",
      "nodes": [
        0
      ]
    }
  ],
  "textures": [
    {
      "sampler": 0,
      "source": 0
    },
    {
      "sampler": 0,
      "source": 1
    },
    {
      "sampler": 0,
      "source": 2
    },
    {
      "sampler": 0,
      "source": 3
    }
  ]
}
