<svg xmlns="http://www.w3.org/2000/svg" viewBox="0 0 24 24"><path d="M13.54 11.94c-.19.04-.38.08-.54.14-.41.15-.21.26-.05.26.03 0 .06-.01.09-.01.12-.17.33-.31.5-.39zm1.01-.18c-.15-.06-.33-.24-.17-.49.92.15.92 0 1.83-.1.1-.05.71-.21.31-.21-.31 0-1.12.05-1.02 0 .1-.05.25-.1.35-.21.36-.31-.05-.21-.35-.05-.66.26-1.74 0-1.22-1.32.92-1.17 2.4-1.48 3.05-3.21.21-.71.15-1.38-.41-4.12 0-.92.71-.46 1.02-.41.06-.01.26.1.11-.16-.25-.31-.5-.31-.81-.31-.1 0-.26-.15.05-.35.1-.1.15-.35-.21-.61-.41-.26-.66-.26-1.17-.1-1.06.3-.91 2.69-1.47 3.81 1.32-.15 1.78.1 2.49.92.41.76-.35 1.63-1.32 2.49-.61.46-1.38.37-1.73.26-.56-.21-1.02-.3-1.48-.81-.15-.15-.26-.41-.31-.56-.15-.1-.36.15-.56.26-.25.1-.15.15.1.31.66.5.92.76 1.83 1.07.36.21-.5.51-.81.51-.56-.1-.71-.26-1.07-.66-.3-.31-.41-.86-.61-.92-.21-.05-.41.15-.61.26-.21.1-.31.15-.51.26-.1.08-.15.24.15.64.21.31.97.66.66.66-1.22.1-1.22-.1-1.47-.81-.09-.25-.86.26-1.32.41-.41.15-1.17.31-.92.46.26.15.66.21 1.07.21.46.15-1.42.5-1.98.81-.41.36.15.41.61.26 1.63-.51 3.61-1.02 5.65-.76 1.22 0 .51 1.07 1.32 1.98.21.21-1.07.56 0 .41.14-.05.28.12.38.23.19-.05.37-.06.55-.05zm.54.09c.06-.03.13-.05.2-.08-.33-.21-.43-.04-.56 0 .15.03.27.05.36.08zm.59.33s1.09-.05.89-.2c-.26-.22-.9-.13-1.32-.07.18.08.33.17.43.27zm-1.39-1.08c-.1-.05-.21.1-.31.1 0-.15-.15-.71-.15-.86.11.1.36.35.46.76zm2.34-10.08c-.1.1-.15.1-.31.1-.15-.1-.15-.1-.25-.26-.05-.05-.05-.1-.01-.21.05-.1.05-.05.1-.05.05.05.05.15.1.26.05.05.1.1.15.05.05 0 .05-.1.05-.15-.05-.1-.05-.1-.15-.15-.15-.15-.05-.21 0-.21.21.05.31.15.21.26.26 0 .21.25.11.36zm.26.06c-.05 0-.1-.05-.1-.1s.05-.1.1-.1.1.05.1.1c0 .04-.05.1-.1.1zM16.69 24h-4.5c-.03 0-.36-.43-.36-.45V14.9c0-.02.46-.47.51-.47h4.27c.05 0 .45.49.45.54v8.57c-.02.04-.32.46-.37.46zm.27-8.95c0-.04-.39-.53-.43-.53H12.4c-.05 0-.49.45-.49.46v8.48c0 .03.33.45.35.45h4.36c.05 0 .35-.41.35-.45l-.01-8.41zm-1.35 5.31h-2.39c-.04 0-.07-.03-.07-.07l.01-3.88c0-.04.03-.07.07-.07h2.39c.04 0 .07.03.07.07l-.01 3.88c0 .04-.03.07-.07.07zm-.02-3.83a.1.1 0 00-.1-.1h-2.14a.1.1 0 00-.1.1v3.65c0 .06.05.1.1.1h2.14a.1.1 0 00.1-.1v-3.65zm.02-2.99c.03 0 .05.02.05.05v.66c0 .03-.02.05-.05.05h-2.35c-.03 0-.05-.02-.05-.05v-.66c0-.03.02-.05.05-.05h2.35zm-2.28.65c0 .06.05.1.1.1h.03a.1.1 0 00.1-.1v-.44a.1.1 0 00-.1-.1h-.03a.1.1 0 00-.1.1v.44zm2.25-.87c-1.19 0-1.07.02-2.23.02-.25 0-.44-.36-.44-.58 0-.55.68-1 1.53-1s1.53.45 1.53 1c0 .2-.15.56-.39.56zm-1.81-1.07c0-.01 0-.01 0 0 0-.01-.01-.02-.01-.03-.01-.06-.07-.07-.14-.06h-.07c-.02.01-.04.01-.05.01-.03.01-.05.01-.08.02-.11.05-.2.09-.28.21-.03.05-.05.1-.07.16-.01.03-.01.05-.01.08 0 .01-.01.03-.01.04v.04c0 .08.03.16.08.23.01.01.02.01.03.01h.04c.02-.01.04-.01.05-.03.04-.09-.02-.22.03-.32.08-.17.17-.18.33-.26-.01-.01.1-.03.1-.04l.03-.03c.01-.02.01-.02.01-.03h.02z"/></svg>