{
  "accessors": [
    {
      "bufferView": 2,
      "componentType": 5126,
      "count": 281,
      "max": [
        0.532899022102356,
        1.0,
        0.5169919729232788
      ],
      "min": [
        -0.532899022102356,
        -1.0,
        -0.5169919729232788
      ],
      "type": "VEC3"
    },
    {
      "bufferView": 2,
      "byteOffset": 3372,
      "componentType": 5126,
      "count": 281,
      "max": [
        0.9768474698066711,
        0.956862211227417,
        0.9959805011749268
      ],
      "min": [
        -0.9964308738708496,
        -0.9989033341407776,
        -0.9916040897369385
      ],
      "type": "VEC3"
    },
    {
      "bufferView": 3,
      "componentType": 5126,
      "count": 281,
      "max": [
        0.9987131953239441,
        0.9923752546310425,
        0.8179758191108704,
        1.0
      ],
      "min": [
        -0.9996505975723267,
        -0.5560985803604126,
        -0.9950817227363586,
        1.0
      ],
      "type": "VEC4"
    },
    {
      "bufferView": 1,
      "componentType": 5126,
      "count": 281,
      "max": [
        0.9999079704284668,
        0.8476999998092651
      ],
      "min": [
        9.205719834426418e-05,
        9.205719834426418e-05
      ],
      "type": "VEC2"
    },
    {
      "bufferView": 0,
      "componentType": 5125,
      "count": 1380,
      "type": "SCALAR"
    }
  ],
  "asset": {
    "extras": {
      "author": "Multipainkiller Studio (https://sketchfab.com/Multipainkiller_Studio)",
      "license": "CC-BY-4.0 (http://creativecommons.org/licenses/by/4.0/)",
      "source": "https://sketchfab.com/3d-models/pear-a6193c4a6e4547d19060b8e120dcc377",
      "title": "Pear"
    },
    "generator": "Sketchfab-12.68.0",
    "version": "2.0"
  },
  "bufferViews": [
    {
      "buffer": 0,
      "byteLength": 5520,
      "name": "floatBufferViews",
      "target": 34963
    },
    {
      "buffer": 0,
      "byteLength": 2248,
      "byteOffset": 5520,
      "byteStride": 8,
      "name": "floatBufferViews",
      "target": 34962
    },
    {
      "buffer": 0,
      "byteLength": 6744,
      "byteOffset": 7768,
      "byteStride": 12,
      "name": "floatBufferViews",
      "target": 34962
    },
    {
      "buffer": 0,
      "byteLength": 4496,
      "byteOffset": 14512,
      "byteStride": 16,
      "name": "floatBufferViews",
      "target": 34962
    }
  ],
  "buffers": [
    {
      "byteLength": 19008,
      "uri": "scene.bin"
    }
  ],
  "images": [
    {
      "uri": "textures/M_Pear_baseColor.jpeg"
    },
    {
      "uri": "textures/M_Pear_metallicRoughness.png"
    },
    {
      "uri": "textures/M_Pear_normal.png"
    }
  ],
  "materials": [
    {
      "doubleSided": true,
      "name": "M_Pear",
      "normalTexture": {
        "index": 2
      },
      "occlusionTexture": {
        "index": 1
      },
      "pbrMetallicRoughness": {
        "baseColorTexture": {
          "index": 0
        },
        "metallicRoughnessTexture": {
          "index": 1
        }
      }
    }
  ],
  "meshes": [
    {
      "name": "defaultMaterial",
      "primitives": [
        {
          "attributes": {
            "NORMAL": 1,
            "POSITION": 0,
            "TANGENT": 2,
            "TEXCOORD_0": 3
          },
          "indices": 4,
          "material": 0,
          "mode": 4
        }
      ]
    }
  ],
  "nodes": [
    {
      "children": [
        1
      ],
      "matrix": [
        1.0,
        0.0,
        0.0,
        0.0,
        0.0,
        2.220446049250313e-16,
        -1.0,
        0.0,
        0.0,
        1.0,
        2.220446049250313e-16,
        0.0,
        0.0,
        0.0,
        0.0,
        1.0
      ],
      "name": "Sketchfab_model"
    },
    {
      "children": [
        2
      ],
      "matrix": [
        1.0,
        0.0,
        0.0,
        0.0,
        0.0,
        -4.371139006309477e-08,
        0.999999999999999,
        0.0,
        0.0,
        -0.999999999999999,
        -4.371139006309477e-08,
        0.0,
        0.0,
        0.0,
        0.0,
        1.0
      ],
      "name": "Collada visual scene group"
    },
    {
      "children": [
        3
      ],
      "name": "SM_Pear"
    },
    {
      "mesh": 0,
      "name": "defaultMaterial"
    }
  ],
  "samplers": [
    {
      "magFilter": 9729,
      "minFilter": 9987,
      "wrapS": 10497,
      "wrapT": 10497
    }
  ],
  "scene": 0,
  "scenes": [
    {
      "name": "Sketchfab_Scene",
      "nodes": [
        0
      ]
    }
  ],
  "textures": [
    {
      "sampler": 0,
      "source": 0
    },
    {
      "sampler": 0,
      "source": 1
    },
    {
      "sampler": 0,
      "source": 2
    }
  ]
}
